<svg height="489.29978" viewBox="0 0 890.30174 489.29978" width="890.30174" xmlns="http://www.w3.org/2000/svg"><path d="m182.97245.39886h703.57565v450.60114h-703.57565z" fill="#e6e6e6"/><path d="m245.18701 60.90722h254v261h-254z" fill="#fff"/><path d="m594.18701 65.96874h254v317h-254z" fill="#fff"/><ellipse cx="844.80174" cy="477.2616" fill="#e6e6e6" rx="45.5" ry="6.5"/><ellipse cx="389.89961" cy="477.40722" fill="#e6e6e6" rx="45.5" ry="6.5"/><ellipse cx="104.42498" cy="470.90722" fill="#e6e6e6" rx="104.42498" ry="5"/><path d="m182.67203 0h703.57565v29.89047h-703.57565z" fill="#133751"/><circle cx="204.88423" cy="15.28159" fill="#e6e6e6" r="5.53997"/><circle cx="225.91256" cy="15.28159" fill="#e6e6e6" r="5.53997"/><circle cx="246.94089" cy="15.28159" fill="#e6e6e6" r="5.53997"/><path d="m947.03614 356.34879h-1.53864v-42.15056a24.3956 24.3956 0 0 0 -24.39567-24.39563h-89.30161a24.3956 24.3956 0 0 0 -24.39567 24.39563v231.24125a24.3956 24.3956 0 0 0 24.39567 24.39563h89.30161a24.3956 24.3956 0 0 0 24.39567-24.39563v-159.08721h1.53864z" fill="#3f3d56" transform="translate(-154.84913 -205.35011)"/><path d="m921.08621 296.1495h-11.65682a8.6555 8.6555 0 0 1 -8.01381 11.92446h-51.15979a8.65552 8.65552 0 0 1 -8.01379-11.92446h-10.88752a18.21836 18.21836 0 0 0 -18.21838 18.21834v230.902a18.21836 18.21836 0 0 0 18.21838 18.21836h89.73173a18.21837 18.21837 0 0 0 18.21839-18.21836v-230.902a18.21837 18.21837 0 0 0 -18.21839-18.21834z" fill="#fff" transform="translate(-154.84913 -205.35011)"/><path d="m284.09023 225.77561h176.5444v8.05267h-176.5444z" fill="#e6e6e6"/><path d="m284.09023 251.77561h176.5444v8.05267h-176.5444z" fill="#133751"/><path d="m284.09023 277.77561h176.5444v8.05267h-176.5444z" fill="#e6e6e6"/><path d="m670.83934 243.34556h103.06376v8.05267h-103.06376z" fill="#e6e6e6"/><path d="m670.83934 268.34556h103.06376v8.05267h-103.06376z" fill="#e6e6e6"/><path d="m670.83934 293.34556h103.06376v8.05267h-103.06376z" fill="#e6e6e6"/><path d="m922.35071 606.56341h17.17729v17.17729h-17.17729z" fill="#3f3d56" transform="matrix(0 1 -1 0 1391.24229 -521.13741)"/><path d="m894.67619 606.56341h17.17729v17.17729h-17.17729z" fill="#133751" transform="matrix(0 1 -1 0 1363.56776 -493.46289)"/><path d="m867.00166 606.56341h17.17729v17.17729h-17.17729z" fill="#3f3d56" transform="matrix(0 1 -1 0 1335.89323 -465.78836)"/><path d="m839.32713 606.56341h17.17729v17.17729h-17.17729z" fill="#3f3d56" transform="matrix(0 1 -1 0 1308.2187 -438.11383)"/><path d="m811.6526 606.56341h17.17729v17.17729h-17.17729z" fill="#3f3d56" transform="matrix(0 1 -1 0 1280.54418 -410.4393)"/><path d="m692.7424 138.9903h57.25764v57.25764h-57.25764z" fill="#133751"/><path d="m504.45442 480.943-.74114 1.48227-2.2234-11.117s-2.96454-11.85815 2.96454-11.85815 4.4468 11.85815 4.4468 11.85815v8.15248z" fill="#a0616a" transform="translate(-154.84913 -205.35011)"/><path d="m601.69555 479.42524.74113 1.48227 2.22341-11.117s2.96454-11.85815-2.96454-11.85815-4.44681 11.85815-4.44681 11.85815v8.15249z" fill="#a0616a" transform="translate(-154.84913 -205.35011)"/><path d="m382.215 358.94-8.893 54.844 4.446 53.361 10.376-4.446-1.482-40.022 10.376-31.869 2.223 37.798-4.446 39.28 13.34 1.483 9.635-80.784-.741-27.422z" fill="#2f2e41"/><path d="m537.06434 665.82526-5.18794 8.15248v18.21626a2.209 2.209 0 0 0 1.85635 2.18045c2.5428.41721 6.97037.71364 8.51954-1.86831 2.2234-3.70567.74113-11.85816.74113-11.85816s2.96454-5.92907 1.48227-10.37588-2.96454-5.18794-2.96454-5.18794z" fill="#2f2e41" transform="translate(-154.84913 -205.35011)"/><path d="m559.29839 673.23661 1.48227 2.2234s2.2234 2.22341.74113 3.70568a28.96565 28.96565 0 0 0 -2.96454 3.70567s-8.15248 2.2234-8.15248-.74114v-9.63475z" fill="#2f2e41" transform="translate(-154.84913 -205.35011)"/><circle cx="401.77827" cy="288.79506" fill="#a0616a" r="9.82427"/><path d="m395.185 291.867-.741 14.082 13.34.741-.741-14.082z" fill="#a0616a"/><path d="m564.48633 512.41037-2.10384-5.13957s-9.75432-3.75405-12.71885-.04838l-1.48227 4.44681-11.85816-2.96454-6.67021 14.8227 5.92908 42.24468s15.56382 20.01064 36.3156.74113l5.92908-40.02127-4.44676-15.56383z" fill="#575a89" transform="translate(-154.84913 -205.35011)"/><path d="m417.049 308.543 1.482-2.965 14.823-8.894 9.046-26.777 7 3-7.894 31.93-21.493 20.01z" fill="#575a89"/><path d="m382.956 304.837-1.482-1.482-15.564-9.635-11.117-22.234-8.893 2.964 9.634 27.422 23.717 19.27z" fill="#575a89"/><path d="m563.91892 479.10047 1.60629-.80315-2.40943-.80314v-.80318s-12.04715-4.81886-13.65343 3.21257a16.14329 16.14329 0 0 0 0 19.27544v2.40942l12.85029 1.60629 1.60628-4.81886s8.03144-14.45653 0-19.27539z" fill="#2f2e41" transform="translate(-154.84913 -205.35011)"/><path d="m269.93891 565.15978-2.85542 1.42771s-11.42168 5.23493-8.09036 8.09035 12.37349-2.85542 12.37349-2.85542l1.90361-2.37952z" fill="#ffb8b8" transform="translate(-154.84913 -205.35011)"/><path d="m198.633 359.099-8.826 59.247-13.326 41.403-7.138-3.331 6.662-56.632-19.036-16.181 1.428-23.795z" fill="#2f2e41"/><path d="m323.24006 663.19583s8.09036-4.28313 8.56626 1.90361l-.95181 6.18674s2.85542 10.94578-6.66264 8.56626-2.85542-9.51806-2.85542-9.51806z" fill="#2f2e41" transform="translate(-154.84913 -205.35011)"/><path d="m318.00513 583.72-6.18674 5.23493s0 32.36142 4.28312 37.12045 31.40961 29.0301 32.36142 29.9819 5.23494-9.51806 5.23494-9.51806l-25.69878-29.9819 1.90362-18.56023z" fill="#2f2e41" transform="translate(-154.84913 -205.35011)"/><path d="m350.84245 645.11151s7.61445-1.42771 7.61445 3.80722a115.23116 115.23116 0 0 0 .9518 12.37349s1.90362 16.65661-4.28313 14.27709-8.56625-19.03612-8.56625-19.03612a7.08933 7.08933 0 0 1 2.85542-3.33133c1.90361-.9518 1.42771-8.09035 1.42771-8.09035z" fill="#2f2e41" transform="translate(-154.84913 -205.35011)"/><path d="m172.198 288.424 1.428 17.609-3.807 6.662-10.47-9.994-.952-13.325z" fill="#ffb8b8"/><circle cx="163.6319" cy="282.71335" fill="#ffb8b8" r="11.42168"/><path d="m168.391 305.557 4.759-13.801 8.566 9.518 15.705 60.439-11.898 7.139-5.234-7.615-.952 9.994-23.32-4.759-1.903-63.771 4.756-6.699z" fill="#d0cde1"/><path d="m161.728 373.135-2.855-77.096-6.187 4.759-11.422 7.614 7.615 27.127 2.379 28.554z" fill="#2f2e41"/><path d="m144.596 308.888-3.332-.476-9.518 28.078-19.036 23.796 7.139 7.614 21.891-21.416 8.091-17.608z" fill="#2f2e41"/><path d="m351.4174 565.59536-.64933 3.12573s-2.97081 12.20793 1.33475 11.36336 5.4281-11.48008 5.4281-11.48008l-.68754-2.96869z" fill="#ffb8b8" transform="translate(-154.84913 -205.35011)"/><path d="m172.406 290.983 23.587 9.339-2.855 28.554 5.711 31.41-5.711 6.186-21.116-71.444z" fill="#2f2e41"/><path d="m319.079 468.8806 3.35262-1.6763v1.6763l2.23507-1.11753v2.79384s8.38153 6.14645 6.70522 13.41044-1.67631 7.82276-1.67631 7.82276-2.11922-13.81412-10.50074-11.57905-9.05615 2.63876-11.29122 8.78521l-.60636 2.63647s-9.45145-21.6346 11.78172-22.75214z" fill="#2f2e41" transform="translate(-154.84913 -205.35011)"/><path d="m192.662 300.322h3.807l6.187 33.313v29.03l-7.614-1.428-6.187-43.783z" fill="#2f2e41"/><path d="m3.53501 370.77159h140.32096v97.51118h-140.32096z" fill="#133751"/><path d="m228.54462 595.14827a29.729 29.729 0 1 0 29.729 29.729 29.81642 29.81642 0 0 0 -29.729-29.729zm0 8.9187a8.91871 8.91871 0 1 1 -8.91871 8.91871 8.94863 8.94863 0 0 1 8.91871-8.91871zm0 42.93556a21.65737 21.65737 0 0 1 -17.83742-9.519c.14293-5.94581 11.89161-9.21886 17.83742-9.21886s17.69448 3.27305 17.8374 9.21886a21.69344 21.69344 0 0 1 -17.83741 9.519z" fill="#fff" transform="translate(-154.84913 -205.35011)"/><path d="m284.18701 90.90722h176v101h-176z" fill="#e6e6e6"/><path d="m963.0513 496.58366.81548-5.25988s4.75311-10.80516.99606-11.38765-6.89084 9.70426-6.89084 9.70426l1.37467 10.98574z" fill="#ffb8b8" transform="translate(-154.84913 -205.35011)"/><path d="m846.67 321.051-33.581-6.745-3.902-24.459-9.885-.763.483 31.623 29.177 15.297z" fill="#575a89"/><path d="m846.67 321.051-33.581-6.745-3.902-24.459-9.885-.763.483 31.623 29.177 15.297z" opacity=".2"/><path d="m910.1623 482.06175h103.06376v8.05267h-103.06376z" fill="#133751" transform="matrix(-1 0 0 -1 1768.53923 766.82607)"/><path d="m956.49034 494.78044.00669-5.32271s3.05587-11.402-.74606-11.40676-5.33608 10.63873-5.33608 10.63873l3.02818 10.64924z" fill="#ffb8b8" transform="translate(-154.84913 -205.35011)"/><g fill="#2f2e41"><path d="m1000.2023 510.02489 4.60746-1.12311a11.86169 11.86169 0 0 0 11.64163-14.21088 15.50416 15.50416 0 0 0 -15.48468-15.52363 15.50417 15.50417 0 0 0 -15.52371 15.48467 12.32065 12.32065 0 0 0 14.7593 15.37295z" transform="translate(-154.84913 -205.35011)"/><path d="m818.254 381.458 3.751 41.066 6.792 40.309 11.406.014-1.471-39.542-6.023-47.912z"/><path d="m985.17015 665.90379-7.6096 4.55277s-12.1681 1.50549-9.89171 5.31029 28.89279 1.55707 28.8947.03629-.748-9.886-2.26874-9.88789z" transform="translate(-154.84913 -205.35011)"/><path d="m1006.77139 583.2605s-.21394 5.87095-5.54811 14.98891l.72505 28.13527 27.33 35.01218-9.89553 8.35184-33.40927-38.06137-8.307-45.63372 10.65879-10.63205z" transform="translate(-154.84913 -205.35011)"/><path d="m1026.99716 661.394s9.12274 1.53224 7.59719 5.33226-5.34945 21.28415-15.23162 18.99057c0 0-4.56232-.00573-3.03773-3.04536a55.0044 55.0044 0 0 1 3.04824-5.31889l.01241-9.885z" transform="translate(-154.84913 -205.35011)"/></g><circle cx="840.41522" cy="294.04136" fill="#ffb8b8" r="11.40581"/><path d="m845.728 301.652-.016 12.926-12.166-.015 1.537-12.924z" fill="#ffb8b8"/><path d="m985.35926 515.34718 3.68652-.9056 11.52122.9247s6.07545 6.09074 5.31316 7.61055-4.611 38.774-4.611 38.774l6.81006 26.62213-24.33429 1.49021-12.16428-1.53605 2.34133-47.90151s-5.30647-12.93326 1.54178-16.7266a29.95429 29.95429 0 0 0 9.8955-8.35183z" fill="#575a89" transform="translate(-154.84913 -205.35011)"/><path d="m844.193 313.056-34.215-1.564-7.574-23.581-9.886.747 5.283 31.183 31.163 10.685z" fill="#575a89"/><circle cx="862.43241" cy="278.27937" fill="#2f2e41" r="7.35883"/><path d="m1010.49168 479.67357a7.35536 7.35536 0 0 1 8.807-7.20494 7.3554 7.3554 0 1 0 -4.58768 13.86237 7.35277 7.35277 0 0 1 -4.21932-6.65743z" fill="#2f2e41" transform="translate(-154.84913 -205.35011)"/><path d="m1004.17862 483.847-9.92079-1.82669-7.62952 4.78184a11.57336 11.57336 0 0 0 -5.33128 11.29456l7.64125-1.93681 1.71106-4.29045 2.03787 3.34024 8.26714 14.45412 8.37-4.55181 5.33322-8.35757z" fill="#2f2e41" transform="translate(-154.84913 -205.35011)"/><path d="m526.03635 245.29674h1.99958v202.92117h-1.99958z" fill="#fff" transform="matrix(.49773028 -.86733187 .86733187 .49773028 -190.8885 425.93087)"/><path d="m425.57556 345.75754h202.92117v1.99958h-202.92117z" fill="#fff" transform="matrix(.86737026 -.49766337 .49766337 .86737026 -257.51689 102.92685)"/><path d="m875.53625 332.45224h1.99979v80.61017h-1.99979z" fill="#fff" transform="matrix(.70710678 -.70710678 .70710678 .70710678 -161.69687 523.63263)"/><path d="m836.23106 371.75743h80.61017v1.99979h-80.61017z" fill="#fff" transform="matrix(.70710678 -.70710678 .70710678 .70710678 -161.69687 523.63263)"/></svg>